<svg xmlns="http://www.w3.org/2000/svg" viewBox="0 0 980 680" width="980" height="680" font-family="Inter, Segoe UI, Arial, sans-serif">
<style>.n{fill:#0f0f12;stroke:#333;stroke-width:2}.t{fill:#ddd;font-size:12px;text-anchor:middle}.h{fill:#fff;font-size:20px}</style>
<rect x="0" y="0" width="100%" height="100%" fill="#0b0b0d"/>
<text x="490.0" y="40" class="h">Peace Keepers — Command Lattice</text>
<rect class="n" x="400.0" y="90" width="180" height="40" rx="10"/>
<text class="t" x="490.0" y="110">Marshal of Peace Keepers</text>
<path d="M490.0,130 L220,200" stroke="#555" stroke-width="2"/>
<rect class="n" x="130" y="200" width="180" height="40" rx="10"/>
<text class="t" x="220" y="220">Sector Marshal</text>
<path d="M490.0,130 L490,200" stroke="#555" stroke-width="2"/>
<rect class="n" x="400" y="200" width="180" height="40" rx="10"/>
<text class="t" x="490" y="220">Sector Marshal</text>
<path d="M490.0,130 L760,200" stroke="#555" stroke-width="2"/>
<rect class="n" x="670" y="200" width="180" height="40" rx="10"/>
<text class="t" x="760" y="220">Sector Marshal</text>
<path d="M490,240 L140,320" stroke="#555" stroke-width="2"/>
<rect class="n" x="50" y="320" width="180" height="40" rx="10"/>
<text class="t" x="140" y="340">Rapid Response Group</text>
<path d="M490,240 L300,320" stroke="#555" stroke-width="2"/>
<rect class="n" x="210" y="320" width="180" height="40" rx="10"/>
<text class="t" x="300" y="340">Rapid Response Group</text>
<path d="M490,240 L460,320" stroke="#555" stroke-width="2"/>
<rect class="n" x="370" y="320" width="180" height="40" rx="10"/>
<text class="t" x="460" y="340">Rapid Response Group</text>
<path d="M490,240 L620,320" stroke="#555" stroke-width="2"/>
<rect class="n" x="530" y="320" width="180" height="40" rx="10"/>
<text class="t" x="620" y="340">Rapid Response Group</text>
<path d="M490,240 L780,320" stroke="#555" stroke-width="2"/>
<rect class="n" x="690" y="320" width="180" height="40" rx="10"/>
<text class="t" x="780" y="340">Rapid Response Group</text>
<path d="M490,240 L260,440" stroke="#555" stroke-width="2"/>
<rect class="n" x="170" y="440" width="180" height="40" rx="10"/>
<text class="t" x="260" y="460">Stability & Civil Affairs</text>
<path d="M490,240 L500,440" stroke="#555" stroke-width="2"/>
<rect class="n" x="410" y="440" width="180" height="40" rx="10"/>
<text class="t" x="500" y="460">Stability & Civil Affairs</text>
<path d="M490,240 L740,440" stroke="#555" stroke-width="2"/>
<rect class="n" x="650" y="440" width="180" height="40" rx="10"/>
<text class="t" x="740" y="460">Stability & Civil Affairs</text>
<path d="M490,240 L180,540" stroke="#555" stroke-width="2"/>
<rect class="n" x="90" y="540" width="180" height="40" rx="10"/>
<text class="t" x="180" y="560">Evacuation & Relief Corps</text>
<path d="M490,240 L350,540" stroke="#555" stroke-width="2"/>
<rect class="n" x="260" y="540" width="180" height="40" rx="10"/>
<text class="t" x="350" y="560">Evacuation & Relief Corps</text>
<path d="M490,240 L520,540" stroke="#555" stroke-width="2"/>
<rect class="n" x="430" y="540" width="180" height="40" rx="10"/>
<text class="t" x="520" y="560">Evacuation & Relief Corps</text>
<path d="M490,240 L690,540" stroke="#555" stroke-width="2"/>
<rect class="n" x="600" y="540" width="180" height="40" rx="10"/>
<text class="t" x="690" y="560">Evacuation & Relief Corps</text>
<path d="M490,240 L860,540" stroke="#555" stroke-width="2"/>
<rect class="n" x="770" y="540" width="180" height="40" rx="10"/>
<text class="t" x="860" y="560">Evacuation & Relief Corps</text>
<path d="M490.0,130 L70,440" stroke="#555" stroke-width="2"/>
<rect class="n" x="-20" y="440" width="180" height="40" rx="10"/>
<text class="t" x="70" y="460">Signals & ISR</text>
<path d="M490.0,130 L900,440" stroke="#555" stroke-width="2"/>
<rect class="n" x="810" y="440" width="180" height="40" rx="10"/>
<text class="t" x="900" y="460">Signals & ISR</text>
</svg>